<?xml version="1.0" standalone="no"?>
<!DOCTYPE svg PUBLIC "-//W3C//DTD SVG 20010904//EN"
 "http://www.w3.org/TR/2001/REC-SVG-20010904/DTD/svg10.dtd">
<svg version="1.0" xmlns="http://www.w3.org/2000/svg"
 width="775.000000pt" height="293.000000pt" viewBox="0 0 775.000000 293.000000"
 preserveAspectRatio="xMidYMid meet">

<g transform="translate(0.000000,293.000000) scale(0.100000,-0.100000)"
fill="#000000" stroke="none">
<path d="M1820 2924 c-8 -3 -55 -25 -105 -49 -149 -71 -263 -125 -640 -304
-506 -241 -485 -229 -520 -279 l-30 -44 -3 -770 c-2 -768 -2 -771 19 -815 28
-58 55 -76 244 -165 385 -182 381 -180 779 -372 242 -117 274 -129 322 -122
23 3 203 83 420 186 208 100 402 192 429 205 273 129 393 189 414 208 13 12
32 40 42 62 18 38 19 82 19 798 0 824 2 798 -56 858 -13 14 -73 49 -132 77
-59 28 -330 157 -602 287 -487 233 -550 258 -600 239z m114 -228 c42 -17 76
-61 76 -96 0 -80 -134 -144 -227 -109 -15 5 -40 22 -55 37 -32 30 -38 84 -12
120 38 54 146 78 218 48z m-527 -265 c42 -20 73 -61 73 -100 0 -27 -48 -81
-87 -97 -49 -21 -122 -18 -163 7 -47 29 -59 48 -60 90 0 92 132 147 237 100z
m1077 -15 c103 -43 101 -158 -4 -200 -105 -42 -230 14 -230 103 0 26 47 81 85
97 40 17 107 17 149 0z m-533 -236 c83 -23 120 -111 69 -166 -38 -40 -74 -54
-137 -54 -70 0 -116 24 -140 74 -14 29 -14 39 -3 66 28 68 123 104 211 80z
m-396 -633 c67 -67 72 -182 10 -244 -91 -91 -216 22 -184 167 23 105 108 143
174 77z m1145 -245 c50 -50 60 -133 24 -203 -21 -41 -72 -79 -106 -79 -60 0
-116 94 -102 171 22 118 119 176 184 111z m-1783 -317 c66 -70 65 -185 -3
-245 -40 -35 -67 -37 -111 -10 -79 47 -94 175 -31 255 43 54 94 54 145 0z"/>
<path d="M3670 1465 l0 -1465 35 0 35 0 0 1465 0 1465 -35 0 -35 0 0 -1465z"/>
<path d="M5631 2544 c-150 -32 -281 -124 -344 -241 -40 -74 -67 -192 -67 -288
0 -273 146 -465 397 -521 136 -30 408 -2 488 50 44 29 46 45 43 271 -3 190 -5
216 -21 232 -15 15 -40 18 -177 21 -159 3 -160 3 -185 -22 -33 -33 -33 -79 0
-111 22 -23 32 -25 115 -25 l90 0 0 -109 0 -108 -57 -12 c-80 -16 -200 -14
-263 5 -39 12 -66 29 -106 69 -66 66 -88 130 -88 260 0 157 45 255 140 307
102 55 257 56 384 3 76 -32 95 -31 131 4 37 37 40 95 7 130 -73 79 -319 122
-487 85z"/>
<path d="M6412 2545 c-61 -27 -64 -48 -60 -409 4 -297 6 -326 27 -388 37 -113
114 -194 228 -239 51 -20 75 -23 203 -23 128 0 152 3 203 23 109 43 177 114
219 226 22 57 23 77 26 407 l3 346 -29 33 c-26 29 -35 33 -81 33 -43 0 -56 -5
-79 -27 l-27 -27 -5 -338 c-5 -321 -6 -339 -27 -377 -43 -81 -105 -115 -205
-115 -108 1 -182 49 -213 139 -12 36 -15 103 -15 348 0 343 -3 363 -64 388
-43 18 -62 18 -104 0z"/>
<path d="M4273 2536 c-64 -29 -64 -27 -61 -526 l3 -450 28 -27 27 -28 243 -3
c261 -4 329 4 407 43 120 61 176 197 136 329 -20 67 -58 110 -122 142 l-56 27
35 18 c46 24 101 89 115 138 41 137 -25 268 -163 322 -56 22 -76 23 -310 26
-200 3 -256 0 -282 -11z m482 -170 c18 -8 41 -26 51 -41 23 -35 23 -114 1
-149 -33 -50 -69 -60 -234 -64 l-153 -4 0 136 0 136 150 0 c107 0 160 -4 185
-14z m1 -427 c65 -17 94 -55 94 -125 0 -30 -7 -68 -15 -84 -28 -54 -62 -64
-247 -68 l-168 -4 0 146 0 146 146 0 c80 0 165 -5 190 -11z"/>
<path d="M4892 1118 c-133 -20 -213 -113 -196 -226 13 -85 70 -126 224 -161
52 -12 105 -28 117 -37 33 -21 31 -66 -4 -94 -25 -20 -37 -22 -113 -18 -59 3
-100 11 -134 26 -44 20 -51 21 -72 7 -51 -33 -38 -86 30 -116 60 -26 174 -43
239 -35 73 9 156 52 184 95 48 72 42 154 -16 212 -38 38 -62 48 -215 83 -74
17 -106 38 -106 68 0 80 105 109 235 67 63 -21 66 -21 85 -4 46 41 11 96 -75
120 -70 19 -122 23 -183 13z"/>
<path d="M5332 1044 c-18 -12 -22 -25 -22 -70 l0 -54 -34 0 c-34 0 -66 -27
-66 -57 0 -22 31 -43 66 -43 l34 0 0 -120 c0 -128 7 -156 52 -196 34 -32 93
-47 150 -41 66 8 80 21 76 71 l-3 41 -47 -3 c-40 -3 -51 0 -73 22 -23 24 -25
31 -25 126 l0 100 58 0 c65 0 82 11 82 52 0 35 -24 48 -89 48 l-51 0 0 50 c0
78 -52 114 -108 74z"/>
<path d="M5785 921 c-79 -20 -140 -75 -160 -145 -61 -205 103 -363 311 -301
93 27 148 109 148 220 0 100 -37 166 -116 206 -42 22 -138 32 -183 20z m135
-126 c22 -23 25 -34 25 -101 0 -73 -1 -77 -33 -105 -20 -18 -43 -29 -62 -29
-19 0 -42 11 -62 29 -32 28 -33 32 -33 104 0 61 4 79 20 97 42 47 101 48 145
5z"/>
<path d="M6212 920 c-12 -5 -27 -21 -32 -35 -15 -39 -13 -354 3 -385 17 -34
56 -46 93 -29 l29 14 5 132 c5 126 6 134 31 158 17 17 42 28 78 34 29 5 57 15
62 22 14 23 10 76 -7 90 -24 20 -102 -4 -136 -41 -19 -21 -28 -25 -28 -15 0
19 -44 65 -62 64 -7 0 -23 -4 -36 -9z"/>
<path d="M6680 921 c-111 -36 -164 -109 -164 -226 0 -117 53 -190 161 -221
136 -40 302 23 262 98 -12 22 -23 21 -126 -3 -87 -21 -146 7 -168 78 -6 22 -6
22 147 25 l153 3 0 61 c0 75 -34 133 -96 165 -46 23 -130 33 -169 20z m131
-110 c16 -16 29 -39 29 -50 0 -20 -5 -21 -100 -21 -55 0 -100 3 -100 8 0 18
42 74 63 82 43 17 77 11 108 -19z"/>
</g>
</svg>
